<?xml version="1.0" encoding="utf-8" ?>
<svg xmlns="http://www.w3.org/2000/svg" xmlns:xlink="http://www.w3.org/1999/xlink" width="1024" height="1024">
	<path d="M0 0L1024 0L1024 1024L0 1024L0 0ZM524.363 244.216C489.581 246.519 457.615 254.601 433.719 281.766C397.861 322.527 402.657 379.68 402.012 430.067C376.974 430.008 351.822 429.5 326.796 430.134L326.751 483.214Q364.32 483.619 401.891 483.542L401.932 617.073L402.012 656.877C402.03 667.877 402.627 679.42 400.455 690.247C398.103 701.972 392.774 712.271 384.291 720.737C369.869 735.132 347.378 740.098 327.639 739.946Q327.08 739.942 326.521 739.926L326.467 781.102L481.331 781.18C516.873 781.138 552.529 780.53 588.059 781.294C588.145 767.539 588.421 753.757 588.307 740.004C562.903 739.648 539.516 735.368 520.945 716.737C513.191 708.604 507.439 698.386 505.201 687.315C502.961 676.23 503.451 664.744 503.432 653.493L503.423 617.091L503.34 483.561Q571.702 484.193 640.064 483.503L640.049 429.776C620.135 430.173 600.169 429.772 580.25 429.733L503.35 429.823L503.359 385.054C503.358 356.28 501.416 320.803 523.63 298.938C540.479 282.353 568.112 280.659 590.448 280.949Q591.108 280.957 591.767 280.972C588.007 297.862 588.136 311.919 597.737 327.06Q598.436 328.184 599.191 329.271Q599.946 330.358 600.754 331.406Q601.562 332.454 602.422 333.46Q603.282 334.466 604.191 335.428Q605.1 336.39 606.056 337.305Q607.012 338.22 608.013 339.085Q609.014 339.951 610.057 340.766Q611.099 341.581 612.182 342.342Q613.264 343.104 614.384 343.81Q615.503 344.516 616.656 345.165Q617.809 345.814 618.994 346.405Q620.178 346.995 621.39 347.526Q622.603 348.056 623.84 348.525Q625.078 348.994 626.337 349.401Q627.597 349.807 628.875 350.15Q630.153 350.493 631.447 350.771C645.331 353.741 661.063 351.713 673.06 343.868Q674.185 343.139 675.273 342.355Q676.36 341.571 677.408 340.734Q678.455 339.897 679.46 339.009Q680.465 338.122 681.424 337.185Q682.384 336.249 683.296 335.266Q684.208 334.283 685.07 333.257Q685.933 332.23 686.743 331.162Q687.553 330.094 688.31 328.987Q689.066 327.88 689.767 326.737Q690.468 325.594 691.111 324.417Q691.754 323.241 692.338 322.034Q692.922 320.827 693.446 319.593Q693.97 318.359 694.432 317.1Q694.894 315.841 695.293 314.562Q695.692 313.282 696.027 311.983Q696.363 310.685 696.633 309.372Q696.878 308.084 697.06 306.785Q697.241 305.487 697.358 304.181Q697.476 302.875 697.528 301.564Q697.581 300.254 697.57 298.943Q697.558 297.632 697.482 296.323Q697.406 295.014 697.266 293.71Q697.125 292.406 696.921 291.111Q696.717 289.816 696.449 288.532Q696.181 287.249 695.851 285.98Q695.52 284.711 695.128 283.46Q694.735 282.209 694.281 280.978Q693.828 279.748 693.314 278.542Q692.801 277.335 692.228 276.155Q691.656 274.976 691.026 273.826Q690.397 272.675 689.711 271.558Q689.026 270.44 688.286 269.357Q687.498 268.195 686.654 267.074Q685.809 265.952 684.911 264.874Q684.013 263.795 683.063 262.762Q682.113 261.729 681.113 260.743Q680.113 259.758 679.066 258.823Q678.02 257.887 676.928 257.005Q675.837 256.122 674.703 255.294Q673.57 254.466 672.397 253.695Q671.224 252.923 670.015 252.21Q668.805 251.498 667.563 250.845Q666.32 250.192 665.047 249.601Q663.773 249.01 662.473 248.483Q661.172 247.955 659.847 247.492Q658.522 247.029 657.175 246.631Q655.829 246.234 654.465 245.903Q653.101 245.572 651.722 245.308C642.065 243.428 632.303 243.873 622.525 243.922L592.201 243.992L550.445 243.957C541.783 243.95 533.005 243.668 524.363 244.216ZM637.316 558.204C622.172 559.73 610.315 565.656 600.589 577.537C591.573 588.549 587.273 603.884 588.812 618.006Q588.962 619.317 589.177 620.62Q589.391 621.922 589.668 623.213Q589.946 624.503 590.286 625.778Q590.625 627.054 591.027 628.311Q591.429 629.568 591.892 630.805Q592.354 632.041 592.876 633.253Q593.399 634.465 593.979 635.651Q594.56 636.836 595.198 637.991Q595.836 639.147 596.529 640.27Q597.222 641.393 597.97 642.481Q598.717 643.569 599.516 644.62Q600.316 645.67 601.165 646.68Q602.015 647.69 602.913 648.657Q603.811 649.625 604.755 650.547Q605.699 651.47 606.687 652.345Q607.675 653.221 608.704 654.047C619.382 662.508 634.257 667.62 647.965 665.936C648.222 665.905 648.476 665.854 648.731 665.813C663.74 664.091 676.515 658.037 685.978 646.007Q686.821 644.952 687.609 643.856Q688.398 642.76 689.13 641.625Q689.862 640.491 690.536 639.321Q691.21 638.151 691.824 636.948Q692.439 635.746 692.991 634.514Q693.544 633.282 694.034 632.024Q694.524 630.766 694.95 629.484Q695.375 628.203 695.736 626.902Q696.097 625.6 696.391 624.283Q696.686 622.965 696.913 621.634Q697.141 620.303 697.301 618.962Q697.462 617.622 697.554 616.275Q697.647 614.928 697.671 613.578Q697.695 612.228 697.652 610.878Q697.608 609.528 697.496 608.183Q697.384 606.837 697.205 605.499Q697.037 604.153 696.803 602.818Q696.568 601.482 696.267 600.16Q695.966 598.837 695.599 597.532Q695.232 596.226 694.8 594.941Q694.368 593.655 693.873 592.393Q693.377 591.13 692.819 589.894Q692.261 588.658 691.642 587.452Q691.022 586.245 690.344 585.071Q689.665 583.897 688.928 582.759Q688.191 581.62 687.398 580.52Q686.606 579.42 685.759 578.36Q684.912 577.301 684.013 576.286Q683.114 575.27 682.166 574.301Q681.218 573.331 680.222 572.411Q679.226 571.49 678.185 570.62Q677.145 569.751 676.062 568.934C665.422 560.81 650.699 556.471 637.316 558.204Z"/>
	<path fill="white" d="M402.012 430.067C402.657 379.68 397.861 322.527 433.719 281.766C457.615 254.601 489.581 246.519 524.363 244.216C533.005 243.668 541.783 243.95 550.445 243.957L592.201 243.992L622.525 243.922C632.303 243.873 642.065 243.428 651.722 245.308Q653.101 245.572 654.465 245.903Q655.829 246.234 657.175 246.631Q658.522 247.029 659.847 247.492Q661.172 247.955 662.473 248.483Q663.773 249.01 665.047 249.601Q666.32 250.192 667.563 250.845Q668.805 251.498 670.015 252.21Q671.224 252.923 672.397 253.695Q673.569 254.466 674.703 255.294Q675.837 256.122 676.928 257.005Q678.02 257.887 679.066 258.823Q680.113 259.758 681.113 260.743Q682.113 261.729 683.063 262.762Q684.013 263.795 684.911 264.874Q685.809 265.952 686.654 267.074Q687.498 268.195 688.286 269.357Q689.026 270.44 689.711 271.558Q690.397 272.675 691.026 273.826Q691.656 274.976 692.228 276.155Q692.801 277.335 693.314 278.542Q693.828 279.748 694.281 280.978Q694.735 282.209 695.128 283.46Q695.52 284.711 695.851 285.98Q696.181 287.249 696.449 288.532Q696.717 289.816 696.921 291.111Q697.126 292.406 697.266 293.71Q697.406 295.014 697.482 296.323Q697.558 297.632 697.57 298.943Q697.581 300.254 697.529 301.564Q697.476 302.875 697.358 304.181Q697.241 305.487 697.06 306.785Q696.878 308.084 696.633 309.372Q696.363 310.685 696.027 311.983Q695.692 313.282 695.293 314.561Q694.894 315.841 694.432 317.1Q693.97 318.359 693.446 319.593Q692.923 320.827 692.338 322.034Q691.754 323.241 691.111 324.417Q690.468 325.594 689.767 326.737Q689.066 327.88 688.31 328.987Q687.553 330.094 686.743 331.162Q685.933 332.23 685.07 333.257Q684.208 334.283 683.296 335.266Q682.384 336.249 681.424 337.185Q680.465 338.122 679.46 339.009Q678.455 339.897 677.408 340.734Q676.36 341.571 675.273 342.355Q674.185 343.139 673.06 343.868C661.063 351.713 645.331 353.741 631.447 350.771Q630.153 350.493 628.875 350.15Q627.597 349.807 626.337 349.401Q625.078 348.994 623.84 348.525Q622.603 348.056 621.39 347.526Q620.178 346.995 618.994 346.405Q617.809 345.814 616.656 345.165Q615.503 344.516 614.384 343.81Q613.264 343.103 612.182 342.342Q611.099 341.581 610.057 340.766Q609.014 339.951 608.013 339.085Q607.012 338.22 606.056 337.305Q605.1 336.39 604.191 335.428Q603.282 334.466 602.422 333.46Q601.562 332.454 600.754 331.406Q599.946 330.358 599.191 329.271Q598.436 328.184 597.737 327.06C588.136 311.919 588.007 297.862 591.767 280.972Q591.108 280.957 590.448 280.949C568.112 280.659 540.479 282.353 523.63 298.938C501.416 320.803 503.358 356.28 503.359 385.054L503.35 429.823L580.25 429.733C600.169 429.772 620.135 430.173 640.049 429.776L640.064 483.503Q571.702 484.193 503.34 483.561L503.423 617.091L503.432 653.493C503.451 664.744 502.961 676.23 505.201 687.315C507.439 698.386 513.191 708.604 520.945 716.737C539.516 735.368 562.903 739.648 588.307 740.004C588.421 753.757 588.145 767.539 588.059 781.294C552.529 780.53 516.873 781.138 481.331 781.18L326.467 781.102L326.521 739.926Q327.08 739.942 327.639 739.946C347.378 740.098 369.869 735.132 384.291 720.737C392.774 712.271 398.103 701.972 400.455 690.247C402.627 679.42 402.03 667.877 402.012 656.877L401.932 617.073L401.891 483.542Q364.32 483.619 326.751 483.214L326.796 430.134C351.822 429.5 376.974 430.008 402.012 430.067Z"/>
	<path fill="white" d="M648.731 665.813C648.476 665.854 648.222 665.905 647.965 665.936C634.257 667.62 619.382 662.508 608.704 654.047Q607.675 653.221 606.687 652.345Q605.699 651.47 604.755 650.547Q603.811 649.625 602.913 648.657Q602.015 647.69 601.165 646.68Q600.316 645.67 599.516 644.62Q598.717 643.569 597.97 642.481Q597.222 641.393 596.529 640.27Q595.836 639.147 595.198 637.991Q594.56 636.836 593.979 635.651Q593.398 634.465 592.876 633.253Q592.354 632.041 591.891 630.805Q591.429 629.568 591.027 628.311Q590.625 627.054 590.286 625.778Q589.946 624.503 589.668 623.213Q589.391 621.922 589.177 620.62Q588.962 619.317 588.812 618.006C587.273 603.884 591.573 588.549 600.589 577.537C610.315 565.656 622.172 559.73 637.316 558.204C650.699 556.471 665.422 560.81 676.062 568.934Q677.145 569.751 678.185 570.62Q679.226 571.49 680.222 572.411Q681.217 573.331 682.166 574.301Q683.114 575.27 684.013 576.285Q684.912 577.301 685.759 578.36Q686.606 579.42 687.398 580.52Q688.191 581.62 688.928 582.759Q689.665 583.897 690.344 585.071Q691.022 586.245 691.642 587.452Q692.261 588.658 692.819 589.894Q693.377 591.13 693.873 592.393Q694.368 593.655 694.8 594.941Q695.232 596.226 695.599 597.532Q695.966 598.837 696.267 600.16Q696.568 601.482 696.803 602.818Q697.037 604.153 697.205 605.499Q697.384 606.837 697.496 608.183Q697.608 609.528 697.652 610.878Q697.695 612.228 697.671 613.578Q697.647 614.928 697.554 616.275Q697.462 617.622 697.301 618.962Q697.141 620.303 696.913 621.634Q696.686 622.965 696.391 624.283Q696.097 625.6 695.736 626.902Q695.375 628.203 694.95 629.484Q694.524 630.766 694.034 632.024Q693.544 633.282 692.991 634.514Q692.439 635.746 691.824 636.948Q691.21 638.151 690.536 639.321Q689.862 640.491 689.13 641.625Q688.398 642.76 687.609 643.856Q686.821 644.952 685.978 646.007C676.515 658.037 663.74 664.091 648.731 665.813Z"/>
</svg>
